<svg width="50" height="50" viewBox="0 0 50 50" fill="none" xmlns="http://www.w3.org/2000/svg">
<path d="M25 0C20.0555 0 15.222 1.46622 11.1108 4.21326C6.99953 6.96029 3.79521 10.8648 1.90302 15.4329C0.0108321 20.0011 -0.484251 25.0277 0.480379 29.8773C1.44501 34.7268 3.82603 39.1814 7.32234 42.6777C10.8187 46.174 15.2732 48.555 20.1227 49.5196C24.9723 50.4842 29.9989 49.9892 34.5671 48.097C39.1352 46.2048 43.0397 43.0005 45.7867 38.8892C48.5338 34.778 50 29.9445 50 25C49.993 18.3717 47.3568 12.017 42.6699 7.33006C37.983 2.64317 31.6283 0.00699956 25 0ZM26.9231 46.0649V30.7692H32.6923C33.2023 30.7692 33.6915 30.5666 34.0521 30.206C34.4128 29.8453 34.6154 29.3562 34.6154 28.8461C34.6154 28.3361 34.4128 27.847 34.0521 27.4863C33.6915 27.1257 33.2023 26.9231 32.6923 26.9231H26.9231V21.1538C26.9231 20.1338 27.3283 19.1555 28.0496 18.4342C28.7709 17.7129 29.7492 17.3077 30.7692 17.3077H34.6154C35.1254 17.3077 35.6146 17.1051 35.9752 16.7444C36.3359 16.3838 36.5385 15.8946 36.5385 15.3846C36.5385 14.8746 36.3359 14.3854 35.9752 14.0248C35.6146 13.6641 35.1254 13.4615 34.6154 13.4615H30.7692C28.7291 13.4615 26.7725 14.272 25.33 15.7146C23.8874 17.1571 23.0769 19.1137 23.0769 21.1538V26.9231H17.3077C16.7977 26.9231 16.3085 27.1257 15.9479 27.4863C15.5872 27.847 15.3846 28.3361 15.3846 28.8461C15.3846 29.3562 15.5872 29.8453 15.9479 30.206C16.3085 30.5666 16.7977 30.7692 17.3077 30.7692H23.0769V46.0649C17.6558 45.57 12.6341 43.0043 9.05635 38.9013C5.47865 34.7984 3.62038 29.4742 3.86807 24.0361C4.11577 18.598 6.45037 13.4648 10.3863 9.7041C14.3221 5.94341 19.5563 3.84481 25 3.84481C30.4437 3.84481 35.6779 5.94341 39.6138 9.7041C43.5496 13.4648 45.8842 18.598 46.1319 24.0361C46.3796 29.4742 44.5214 34.7984 40.9437 38.9013C37.366 43.0043 32.3442 45.57 26.9231 46.0649Z" fill="white"/>
</svg>
