<svg width="50" height="50" viewBox="0 0 50 50" fill="none" xmlns="http://www.w3.org/2000/svg">
<path d="M25 13.4615C22.7179 13.4615 20.4871 14.1383 18.5896 15.4061C16.6921 16.674 15.2132 18.476 14.3399 20.5844C13.4665 22.6928 13.238 25.0128 13.6832 27.251C14.1285 29.4893 15.2274 31.5452 16.8411 33.1589C18.4548 34.7726 20.5107 35.8715 22.749 36.3168C24.9872 36.762 27.3072 36.5335 29.4156 35.6601C31.524 34.7868 33.326 33.3079 34.5939 31.4104C35.8617 29.5129 36.5385 27.2821 36.5385 25C36.5353 21.9408 35.3186 19.0078 33.1554 16.8446C30.9922 14.6814 28.0592 13.4647 25 13.4615ZM25 32.6923C23.4786 32.6923 21.9914 32.2412 20.7264 31.3959C19.4614 30.5507 18.4754 29.3493 17.8932 27.9437C17.311 26.5381 17.1587 24.9915 17.4555 23.4993C17.7523 22.0071 18.4849 20.6365 19.5607 19.5607C20.6365 18.4849 22.0071 17.7523 23.4993 17.4555C24.9915 17.1587 26.5381 17.311 27.9437 17.8932C29.3493 18.4754 30.5507 19.4614 31.3959 20.7264C32.2412 21.9914 32.6923 23.4786 32.6923 25C32.6923 27.0401 31.8819 28.9967 30.4393 30.4393C28.9967 31.8819 27.0401 32.6923 25 32.6923ZM36.5385 0H13.4615C9.89249 0.00381785 6.47071 1.42331 3.94701 3.94701C1.42331 6.47071 0.00381785 9.89249 0 13.4615V36.5385C0.00381785 40.1075 1.42331 43.5293 3.94701 46.053C6.47071 48.5767 9.89249 49.9962 13.4615 50H36.5385C40.1075 49.9962 43.5293 48.5767 46.053 46.053C48.5767 43.5293 49.9962 40.1075 50 36.5385V13.4615C49.9962 9.89249 48.5767 6.47071 46.053 3.94701C43.5293 1.42331 40.1075 0.00381785 36.5385 0ZM46.1538 36.5385C46.1538 39.0886 45.1408 41.5343 43.3376 43.3376C41.5343 45.1408 39.0886 46.1538 36.5385 46.1538H13.4615C10.9114 46.1538 8.46567 45.1408 6.66243 43.3376C4.8592 41.5343 3.84615 39.0886 3.84615 36.5385V13.4615C3.84615 10.9114 4.8592 8.46567 6.66243 6.66243C8.46567 4.8592 10.9114 3.84615 13.4615 3.84615H36.5385C39.0886 3.84615 41.5343 4.8592 43.3376 6.66243C45.1408 8.46567 46.1538 10.9114 46.1538 13.4615V36.5385ZM40.3846 12.5C40.3846 13.0705 40.2154 13.6282 39.8985 14.1026C39.5815 14.577 39.131 14.9467 38.6039 15.165C38.0768 15.3834 37.4968 15.4405 36.9372 15.3292C36.3777 15.2179 35.8637 14.9432 35.4603 14.5397C35.0569 14.1363 34.7821 13.6223 34.6708 13.0628C34.5595 12.5032 34.6166 11.9232 34.835 11.3961C35.0533 10.869 35.423 10.4185 35.8974 10.1015C36.3718 9.78456 36.9295 9.61538 37.5 9.61538C38.265 9.61538 38.9988 9.9193 39.5397 10.4603C40.0807 11.0012 40.3846 11.735 40.3846 12.5Z" fill="white"/>
</svg>
