<svg width="50" height="50" viewBox="0 0 50 50" fill="none" xmlns="http://www.w3.org/2000/svg">
<path d="M41.6667 8.29443C43.8633 8.29443 45.6628 9.98624 45.8219 12.1321L45.8333 12.4416V37.3248C45.8333 39.5112 44.1336 41.3024 41.9776 41.4607L41.6667 41.472H8.33332C6.13674 41.472 4.33715 39.7803 4.17809 37.6344L4.16666 37.3248V12.4416C4.16666 10.2553 5.8664 8.46413 8.02236 8.30581L8.33332 8.29443H41.6667ZM41.6667 15.3742L27.2096 29.7637C25.9892 30.9784 24.0106 30.9784 22.7902 29.7637L8.33332 15.3742V37.3248H41.6667V15.3742ZM38.7204 12.4416H11.2793L25 26.0982L38.7204 12.4416Z" fill="white"/>
</svg>
