<svg width="41" height="41" viewBox="0 0 41 41" fill="none" xmlns="http://www.w3.org/2000/svg">
<path fill-rule="evenodd" clip-rule="evenodd" d="M30.1624 40.9942C27.2034 40.8853 18.8232 39.7286 10.0475 30.9548C1.27162 22.181 0.114625 13.8028 0.00574255 10.8444C-0.160188 6.33684 3.29356 1.95714 7.28496 0.246947C8.22153 -0.154357 9.35592 -0.0809167 10.2527 0.573065C13.536 2.96746 15.8045 6.58761 17.7519 9.43593C18.6316 10.7226 18.4214 12.4794 17.2264 13.5136L13.2195 16.4887C12.8224 16.7835 12.6903 17.3194 12.9285 17.7528C13.8351 19.4027 15.4501 21.8578 17.2982 23.7056C19.1485 25.5553 21.7203 27.2742 23.4839 28.2826C23.9412 28.5442 24.5164 28.3927 24.8056 27.9523L27.4122 23.9828C28.4117 22.6528 30.2784 22.3623 31.6353 23.3012C34.5257 25.3011 37.8973 27.5281 40.3661 30.6891C41.0675 31.5872 41.1718 32.7615 40.7535 33.7376C39.035 37.7465 34.6863 41.1607 30.1624 40.9942Z" fill="white"/>
</svg>
